<?xml version="1.0" encoding="utf-8"?>
<!-- Generator: Adobe Illustrator 23.0.3, SVG Export Plug-In . SVG Version: 6.00 Build 0)  -->
<svg version="1.1" id="Layer_1" xmlns="http://www.w3.org/2000/svg" xmlns:xlink="http://www.w3.org/1999/xlink" x="0px" y="0px"
	 viewBox="0 0 32 32.4" style="enable-background:new 0 0 32 32.4;" xml:space="preserve">
<style type="text/css">
	.st0{fill:url(#SVGID_1_);}
	.st1{fill:url(#SVGID_2_);}
	.st2{fill:url(#SVGID_3_);}
	.st3{fill:url(#SVGID_4_);}
	.st4{fill:url(#SVGID_5_);}
	.st5{fill:url(#SVGID_6_);}
	.st6{fill:url(#SVGID_7_);}
	.st7{fill:#FFFFFF;}
	.st8{fill:url(#SVGID_8_);}
	.st9{fill:url(#SVGID_9_);}
	.st10{fill:url(#SVGID_10_);}
	.st11{fill:url(#SVGID_11_);}
	.st12{fill:url(#SVGID_12_);}
	.st13{fill:url(#SVGID_13_);}
	.st14{fill:url(#SVGID_14_);}
	.st15{fill:url(#SVGID_15_);}
	.st16{fill:url(#SVGID_16_);}
	.st17{fill:url(#SVGID_17_);}
	.st18{fill:url(#SVGID_18_);}
	.st19{fill:url(#SVGID_19_);}
	.st20{fill:url(#SVGID_20_);}
	.st21{fill:url(#SVGID_21_);}
	.st22{fill:url(#SVGID_22_);}
	.st23{fill:url(#SVGID_23_);}
	.st24{fill:url(#SVGID_24_);}
	.st25{fill:url(#SVGID_25_);}
	.st26{fill:url(#SVGID_26_);}
	.st27{fill:url(#SVGID_27_);}
	.st28{fill:url(#SVGID_28_);}
	.st29{fill:url(#SVGID_29_);}
	.st30{fill:url(#SVGID_30_);}
	.st31{fill:url(#SVGID_31_);}
	.st32{fill:url(#SVGID_32_);}
	.st33{fill:url(#SVGID_33_);}
	.st34{fill:url(#SVGID_34_);}
	.st35{fill:url(#SVGID_35_);}
	.st36{fill:url(#SVGID_36_);}
	.st37{fill:url(#SVGID_37_);}
	.st38{fill:url(#SVGID_38_);}
	.st39{fill:url(#SVGID_39_);}
	.st40{fill:url(#SVGID_40_);}
	.st41{fill:url(#SVGID_41_);}
	.st42{fill:url(#SVGID_42_);}
	.st43{fill:url(#SVGID_43_);}
	.st44{fill:url(#SVGID_44_);}
	.st45{fill:url(#SVGID_45_);}
	.st46{fill:url(#SVGID_46_);}
	.st47{fill:url(#SVGID_47_);}
	.st48{fill:url(#SVGID_48_);}
	.st49{fill:url(#SVGID_49_);}
	.st50{fill:url(#SVGID_50_);}
	.st51{fill:url(#SVGID_51_);}
	.st52{fill:url(#SVGID_52_);}
	.st53{fill:url(#SVGID_53_);}
	.st54{fill:url(#SVGID_54_);}
	.st55{fill:url(#SVGID_55_);}
	.st56{fill:url(#SVGID_56_);}
	.st57{fill:url(#SVGID_57_);}
	.st58{fill:url(#SVGID_58_);}
	.st59{fill:url(#SVGID_59_);}
	.st60{fill:url(#SVGID_60_);}
	.st61{fill:url(#SVGID_61_);}
	.st62{fill:url(#SVGID_62_);}
</style>
<g>
	<g>
		<g>
			
				<linearGradient id="SVGID_1_" gradientUnits="userSpaceOnUse" x1="-602.885" y1="869.1522" x2="-602.885" y2="996.4176" gradientTransform="matrix(1 0 0 1 0 -922)">
				<stop  offset="0" style="stop-color:#0B1B49"/>
				<stop  offset="1" style="stop-color:#9810FA"/>
			</linearGradient>
			<path class="st0" d="M-633.3,34.5v-45.8c0-1.4,0.7-2.1,2.1-2.1h31.3c18.4,0,27.3,8.2,27.3,25.1c0,17-8.9,24.8-28.1,24.8h-30.5
				C-632.5,36.6-633.3,35.9-633.3,34.5z M-587.5,12.3c0-8.8-5.1-12.8-15.1-12.8h-16.1v24.3h16.1C-591.8,23.8-587.5,20.4-587.5,12.3z
				"/>
			
				<linearGradient id="SVGID_2_" gradientUnits="userSpaceOnUse" x1="-541.2062" y1="869.1522" x2="-541.2062" y2="996.4176" gradientTransform="matrix(1 0 0 1 0 -922)">
				<stop  offset="0" style="stop-color:#0B1B49"/>
				<stop  offset="1" style="stop-color:#9810FA"/>
			</linearGradient>
			<path class="st1" d="M-557.7,36.6h-11.6c-1.4,0-2-0.9-1.6-2.1l17.3-45.8c0.6-1.5,1.2-2.1,2.3-2.1h20.1c1.4,0,1.9,0.9,2.3,2.1
				l17.3,45.8c0.4,1.2,0,2.1-1.4,2.1h-11.8c-1.4,0-1.6-0.9-2.1-2.1l-2.7-7.2H-553l-2.7,7.2C-556.1,35.8-556.4,36.6-557.7,36.6z
				 M-534,15.2l-7.1-18.8l-7.1,18.8H-534z"/>
			
				<linearGradient id="SVGID_3_" gradientUnits="userSpaceOnUse" x1="-498.265" y1="869.1522" x2="-498.265" y2="996.4176" gradientTransform="matrix(1 0 0 1 0 -922)">
				<stop  offset="0" style="stop-color:#0B1B49"/>
				<stop  offset="1" style="stop-color:#9810FA"/>
			</linearGradient>
			<path class="st2" d="M-493,36.6h-10.5c-1.4,0-2.1-0.7-2.1-2.1v-45.8c0-1.4,0.7-2.1,2.1-2.1h10.5c1.4,0,2.1,0.7,2.1,2.1v45.8
				C-491,35.9-491.7,36.6-493,36.6z"/>
			
				<linearGradient id="SVGID_4_" gradientUnits="userSpaceOnUse" x1="-457.16" y1="869.1522" x2="-457.16" y2="996.4176" gradientTransform="matrix(1 0 0 1 0 -922)">
				<stop  offset="0" style="stop-color:#0B1B49"/>
				<stop  offset="1" style="stop-color:#9810FA"/>
			</linearGradient>
			<path class="st3" d="M-431.9,26.5v8c0,1.4-0.7,2.1-2.1,2.1h-46.3c-1.4,0-2.1-0.7-2.1-2.1v-45.8c0-1.4,0.7-2.1,2.1-2.1h10.5
				c1.4,0,2.1,0.7,2.1,2.1v35.8h33.8C-432.6,24.5-431.9,25.2-431.9,26.5z"/>
			
				<linearGradient id="SVGID_5_" gradientUnits="userSpaceOnUse" x1="-411.1568" y1="869.1522" x2="-411.1568" y2="996.4176" gradientTransform="matrix(1 0 0 1 0 -922)">
				<stop  offset="0" style="stop-color:#0B1B49"/>
				<stop  offset="1" style="stop-color:#9810FA"/>
			</linearGradient>
			<path class="st4" d="M-438.2-13.3h13.3c1.4,0,2.3,0.9,3.1,2.1L-411,5.5l10.4-16.8c0.8-1.2,1.7-2.1,3.1-2.1h13.3
				c1.3,0,1.9,0.9,1.1,2.1l-20.8,30.6v15.2c0,1.4-0.7,2.1-2.1,2.1h-10.5c-1.4,0-2.1-0.7-2.1-2.1V19.3l-20.8-30.6
				C-440.1-12.5-439.5-13.3-438.2-13.3z"/>
		</g>
		<g>
			<g>
				
					<linearGradient id="SVGID_6_" gradientUnits="userSpaceOnUse" x1="-1037.5887" y1="957.05" x2="-627.8858" y2="957.05" gradientTransform="matrix(1 0 0 1 0 -922)">
					<stop  offset="0" style="stop-color:#0B1B49"/>
					<stop  offset="1" style="stop-color:#9810FA"/>
				</linearGradient>
				<circle class="st5" cx="-1000.4" cy="35.1" r="75.4"/>
			</g>
			<g>
				
					<linearGradient id="SVGID_7_" gradientUnits="userSpaceOnUse" x1="-1037.5887" y1="957.05" x2="-627.8858" y2="957.05" gradientTransform="matrix(1 0 0 1 0 -922)">
					<stop  offset="0" style="stop-color:#0B1B49"/>
					<stop  offset="1" style="stop-color:#9810FA"/>
				</linearGradient>
				<circle class="st6" cx="-717.4" cy="35.1" r="75.4"/>
			</g>
			<g>
				<path class="st7" d="M-665.3,48.6c0,14.4-8.9,21.6-27.6,21.6h-61c-2.1,0-3.1-1.1-3.1-3.1V-2.3c0-2,1.1-3.1,3.1-3.1h55.4
					c18.1,0,27.6,6.7,27.6,19.5c0,9.6-5.4,15.1-11.6,16.4v0.4C-670.8,31.9-665.3,37.4-665.3,48.6z M-693.8,20.3
					c0-3.6-3.5-6.3-9.3-6.3h-31.7v12h31.8C-697,26-693.8,23.8-693.8,20.3z M-688.3,44.3c0-4.5-3.1-6.8-9.2-6.8h-37.3v13.3h37.2
					C-691.9,50.8-688.3,49-688.3,44.3z"/>
			</g>
			<g>
				
					<linearGradient id="SVGID_8_" gradientUnits="userSpaceOnUse" x1="-1037.5887" y1="957.04" x2="-627.8858" y2="957.04" gradientTransform="matrix(1 0 0 1 0 -922)">
					<stop  offset="0" style="stop-color:#0B1B49"/>
					<stop  offset="1" style="stop-color:#9810FA"/>
				</linearGradient>
				<path class="st8" d="M-858.5-40.4c-41.6,0-75.4,33.8-75.4,75.4s33.8,75.4,75.4,75.4c41.6,0,75.4-33.8,75.4-75.4
					S-816.9-40.4-858.5-40.4z"/>
			</g>
			<g>
				<path class="st7" d="M-858.5-23.6c-32.3,0-58.7,26.3-58.7,58.7s26.3,58.7,58.7,58.7c32.3,0,58.6-26.3,58.6-58.7
					S-826.2-23.6-858.5-23.6z"/>
			</g>
			<g>
				
					<linearGradient id="SVGID_9_" gradientUnits="userSpaceOnUse" x1="-857.555" y1="896.5977" x2="-857.555" y2="1033.4281" gradientTransform="matrix(1 0 0 1 0 -922)">
					<stop  offset="0" style="stop-color:#0B1B49"/>
					<stop  offset="1" style="stop-color:#9810FA"/>
				</linearGradient>
				<path class="st9" d="M-867.2,64.3h-27.9c-2.1,0-2.6-1.2-3.1-3.1l-14.2-47.8c-0.5-2,1.1-3.1,3.1-3.1h15.2c2,0,2.6,1.2,3.1,3.1
					l10.9,37l11.3-37c0.5-1.7,1-2.9,2.6-3.1c0.4-0.1,0.8-0.1,1.2-0.1h15.2c2.1,0,2.5,1.2,3.1,3.1l11.4,37l10.9-37
					c0.5-2,1.1-3.1,3.1-3.1h15.2c2,0,3.7,1.2,3.1,3.1l-14.2,47.8c-0.5,1.9-1.1,3.1-3.1,3.1h-27.8c-2,0-2.5-1.1-3.1-3.1l-6.6-19.9
					l-6.6,20C-864.7,63.1-865.2,64.3-867.2,64.3z"/>
			</g>
			<g>
				<path class="st7" d="M-1040.6,67.1V-2.3c0-2,1.1-3.1,3.1-3.1h47.4c27.9,0,41.4,12.4,41.4,38c0,25.7-13.5,37.6-42.6,37.6h-46.2
					C-1039.5,70.2-1040.6,69.1-1040.6,67.1z M-971.3,33.4c0-13.4-7.8-19.3-22.8-19.3h-24.3v36.8h24.4
					C-977.9,50.8-971.3,45.7-971.3,33.4z"/>
			</g>
		</g>
		<g>
			<g>
				
					<linearGradient id="SVGID_10_" gradientUnits="userSpaceOnUse" x1="-76.662" y1="994.415" x2="-679.5359" y2="994.415" gradientTransform="matrix(1 0 0 1 0 -922)">
					<stop  offset="0" style="stop-color:#0B1B49"/>
					<stop  offset="1" style="stop-color:#9810FA"/>
				</linearGradient>
				<path class="st10" d="M-597.7,52.8h9c1.2,0,1.3,0.8,1.6,1.6l9.2,30l10.3-30c0.3-0.9,0.6-1.6,1.6-1.6h9.2c1.1,0,1.5,0.7,1.2,1.6
					l-12.5,36c-0.3,0.9-0.6,1.6-1.6,1.6H-586c-1.1,0-1.3-0.7-1.6-1.6l-5.6-19.4l-5.6,19.4c-0.3,0.9-0.6,1.6-1.6,1.6h-16.2
					c-1.1,0-1.3-0.7-1.6-1.6l-12.5-36c-0.3-0.9,0.1-1.6,1.2-1.6h9.2c1.1,0,1.3,0.7,1.6,1.6l10.3,30l9.2-30
					C-599,53.6-598.8,52.8-597.7,52.8z"/>
				
					<linearGradient id="SVGID_11_" gradientUnits="userSpaceOnUse" x1="-76.662" y1="994.42" x2="-679.5359" y2="994.42" gradientTransform="matrix(1 0 0 1 0 -922)">
					<stop  offset="0" style="stop-color:#0B1B49"/>
					<stop  offset="1" style="stop-color:#9810FA"/>
				</linearGradient>
				<path class="st11" d="M-530.5,52.3c16.7,0,25.6,7.1,25.6,20c0,12.6-8.3,20.3-25.6,20.3c-17.3,0-25.6-7.7-25.6-20.3
					C-556.1,59.9-548.1,52.3-530.5,52.3z M-530.5,82.2c9.1,0,13.8-2.4,13.8-9.8s-4.7-9.8-13.7-9.8c-9.7,0-13.4,2.7-13.4,9.7
					C-543.8,79.9-539.6,82.2-530.5,82.2z"/>
				
					<linearGradient id="SVGID_12_" gradientUnits="userSpaceOnUse" x1="-76.662" y1="994.42" x2="-679.5359" y2="994.42" gradientTransform="matrix(1 0 0 1 0 -922)">
					<stop  offset="0" style="stop-color:#0B1B49"/>
					<stop  offset="1" style="stop-color:#9810FA"/>
				</linearGradient>
				<path class="st12" d="M-490,92h-8.2c-1.1,0-1.6-0.6-1.6-1.6v-36c0-1.1,0.6-1.6,1.6-1.6h28.7c9.4,0,14.3,4.5,14.3,13.3
					c0,6.7-2.9,10.8-8.6,12.3l10,11.9c0.7,0.8,0.8,1.6-0.3,1.6h-10.6c-1.1,0-1.9-0.8-2.6-1.6l-9.4-11.2h-11.7v11.2
					C-488.4,91.5-489,92-490,92z M-467,66.1c0-1.9-1.7-3.2-4.7-3.2h-16.7v6.2h16.8C-468.5,69.1-467,67.9-467,66.1z"/>
				
					<linearGradient id="SVGID_13_" gradientUnits="userSpaceOnUse" x1="-76.662" y1="994.415" x2="-679.5359" y2="994.415" gradientTransform="matrix(1 0 0 1 0 -922)">
					<stop  offset="0" style="stop-color:#0B1B49"/>
					<stop  offset="1" style="stop-color:#9810FA"/>
				</linearGradient>
				<path class="st13" d="M-409.2,84.1v6.3c0,1.1-0.6,1.6-1.6,1.6h-36.4c-1.1,0-1.6-0.6-1.6-1.6v-36c0-1.1,0.6-1.6,1.6-1.6h8.2
					c1.1,0,1.6,0.6,1.6,1.6v28.1h26.5C-409.8,82.5-409.2,83.1-409.2,84.1z"/>
				
					<linearGradient id="SVGID_14_" gradientUnits="userSpaceOnUse" x1="-76.662" y1="994.42" x2="-679.5359" y2="994.42" gradientTransform="matrix(1 0 0 1 0 -922)">
					<stop  offset="0" style="stop-color:#0B1B49"/>
					<stop  offset="1" style="stop-color:#9810FA"/>
				</linearGradient>
				<path class="st14" d="M-404.2,90.4v-36c0-1.1,0.6-1.6,1.6-1.6h24.6c14.5,0,21.5,6.4,21.5,19.7c0,13.3-7,19.5-22.1,19.5h-24
					C-403.6,92-404.2,91.5-404.2,90.4z M-368.3,72.9c0-6.9-4-10-11.8-10h-12.6v19h12.7C-371.7,81.9-368.3,79.3-368.3,72.9z"/>
				
					<linearGradient id="SVGID_15_" gradientUnits="userSpaceOnUse" x1="-76.662" y1="994.42" x2="-679.5359" y2="994.42" gradientTransform="matrix(1 0 0 1 0 -922)">
					<stop  offset="0" style="stop-color:#0B1B49"/>
					<stop  offset="1" style="stop-color:#9810FA"/>
				</linearGradient>
				<path class="st15" d="M-289.5,80.8c0,7.4-4.6,11.2-14.3,11.2h-31.6c-1.1,0-1.6-0.6-1.6-1.6v-36c0-1.1,0.6-1.6,1.6-1.6h28.7
					c9.3,0,14.3,3.5,14.3,10.1c0,5-2.8,7.8-6,8.5v0.2C-292.3,72.1-289.5,75-289.5,80.8z M-304.3,66.1c0-1.8-1.8-3.2-4.8-3.2h-16.4
					v6.2h16.5C-305.9,69.1-304.3,67.9-304.3,66.1z M-301.4,78.6c0-2.4-1.6-3.5-4.8-3.5h-19.3v6.9h19.3
					C-303.2,81.9-301.4,81-301.4,78.6z"/>
				
					<linearGradient id="SVGID_16_" gradientUnits="userSpaceOnUse" x1="-76.662" y1="994.415" x2="-679.5359" y2="994.415" gradientTransform="matrix(1 0 0 1 0 -922)">
					<stop  offset="0" style="stop-color:#0B1B49"/>
					<stop  offset="1" style="stop-color:#9810FA"/>
				</linearGradient>
				<path class="st16" d="M-245.1,84.1v6.3c0,1.1-0.6,1.6-1.6,1.6h-36.3c-1.1,0-1.6-0.6-1.6-1.6v-36c0-1.1,0.6-1.6,1.6-1.6h8.2
					c1.1,0,1.6,0.6,1.6,1.6v28.1h26.5C-245.7,82.5-245.1,83.1-245.1,84.1z"/>
				
					<linearGradient id="SVGID_17_" gradientUnits="userSpaceOnUse" x1="-76.662" y1="994.42" x2="-679.5359" y2="994.42" gradientTransform="matrix(1 0 0 1 0 -922)">
					<stop  offset="0" style="stop-color:#0B1B49"/>
					<stop  offset="1" style="stop-color:#9810FA"/>
				</linearGradient>
				<path class="st17" d="M-216.2,52.3c16.7,0,25.6,7.1,25.6,20c0,12.6-8.3,20.3-25.6,20.3c-17.3,0-25.6-7.7-25.6-20.3
					C-241.8,59.9-233.8,52.3-216.2,52.3z M-216.2,82.2c9.1,0,13.8-2.4,13.8-9.8s-4.7-9.8-13.7-9.8c-9.7,0-13.4,2.7-13.4,9.7
					C-229.4,79.9-225.3,82.2-216.2,82.2z"/>
				
					<linearGradient id="SVGID_18_" gradientUnits="userSpaceOnUse" x1="-76.662" y1="994.42" x2="-679.5359" y2="994.42" gradientTransform="matrix(1 0 0 1 0 -922)">
					<stop  offset="0" style="stop-color:#0B1B49"/>
					<stop  offset="1" style="stop-color:#9810FA"/>
				</linearGradient>
				<path class="st18" d="M-164.9,74v-2.7c0-1.1,0.6-1.6,1.6-1.6h22.7c1.1,0,1.6,0.6,1.6,1.6v19.1c0,1.1-0.6,1.6-1.6,1.6h-8.2
					c-1.1,0-1.6-0.6-1.6-1.6v-2.9h-0.8c-2.6,3.3-7.9,5-15,5c-14.7,0-20.9-7.7-20.9-19.4c0-13.8,8.6-20.9,26.3-20.9
					c13.7,0,21.1,4.3,21.6,12.6c0.1,0.9-0.3,1.3-1.3,1.3h-8.9c-1.3,0-1.3-0.6-1.6-1.3c-0.5-1.5-3.4-2.2-9.1-2.2
					c-11,0-14.7,2.7-14.7,9.7c0,7.5,4.1,9.9,12.6,9.9c7.8,0,11.9-2,11.9-5.2v-1.5h-12.8C-164.3,75.6-164.9,75.1-164.9,74z"/>
			</g>
			<g>
				<g>
					
						<linearGradient id="SVGID_19_" gradientUnits="userSpaceOnUse" x1="-76.662" y1="994.415" x2="-679.5359" y2="994.415" gradientTransform="matrix(1 0 0 1 0 -922)">
						<stop  offset="0" style="stop-color:#0B1B49"/>
						<stop  offset="1" style="stop-color:#9810FA"/>
					</linearGradient>
					<path class="st19" d="M-597.7,52.8h9c1.2,0,1.3,0.8,1.6,1.6l9.2,30l10.3-30c0.3-0.9,0.6-1.6,1.6-1.6h9.2c1.1,0,1.5,0.7,1.2,1.6
						l-12.5,36c-0.3,0.9-0.6,1.6-1.6,1.6H-586c-1.1,0-1.3-0.7-1.6-1.6l-5.6-19.4l-5.6,19.4c-0.3,0.9-0.6,1.6-1.6,1.6h-16.2
						c-1.1,0-1.3-0.7-1.6-1.6l-12.5-36c-0.3-0.9,0.1-1.6,1.2-1.6h9.2c1.1,0,1.3,0.7,1.6,1.6l10.3,30l9.2-30
						C-599,53.6-598.8,52.8-597.7,52.8z"/>
					
						<linearGradient id="SVGID_20_" gradientUnits="userSpaceOnUse" x1="-76.662" y1="994.42" x2="-679.5359" y2="994.42" gradientTransform="matrix(1 0 0 1 0 -922)">
						<stop  offset="0" style="stop-color:#0B1B49"/>
						<stop  offset="1" style="stop-color:#9810FA"/>
					</linearGradient>
					<path class="st20" d="M-530.5,52.3c16.7,0,25.6,7.1,25.6,20c0,12.6-8.3,20.3-25.6,20.3c-17.3,0-25.6-7.7-25.6-20.3
						C-556.1,59.9-548.1,52.3-530.5,52.3z M-530.5,82.2c9.1,0,13.8-2.4,13.8-9.8s-4.7-9.8-13.7-9.8c-9.7,0-13.4,2.7-13.4,9.7
						C-543.8,79.9-539.6,82.2-530.5,82.2z"/>
					
						<linearGradient id="SVGID_21_" gradientUnits="userSpaceOnUse" x1="-76.662" y1="994.42" x2="-679.5359" y2="994.42" gradientTransform="matrix(1 0 0 1 0 -922)">
						<stop  offset="0" style="stop-color:#0B1B49"/>
						<stop  offset="1" style="stop-color:#9810FA"/>
					</linearGradient>
					<path class="st21" d="M-490,92h-8.2c-1.1,0-1.6-0.6-1.6-1.6v-36c0-1.1,0.6-1.6,1.6-1.6h28.7c9.4,0,14.3,4.5,14.3,13.3
						c0,6.7-2.9,10.8-8.6,12.3l10,11.9c0.7,0.8,0.8,1.6-0.3,1.6h-10.6c-1.1,0-1.9-0.8-2.6-1.6l-9.4-11.2h-11.7v11.2
						C-488.4,91.5-489,92-490,92z M-467,66.1c0-1.9-1.7-3.2-4.7-3.2h-16.7v6.2h16.8C-468.5,69.1-467,67.9-467,66.1z"/>
					
						<linearGradient id="SVGID_22_" gradientUnits="userSpaceOnUse" x1="-76.662" y1="994.415" x2="-679.5359" y2="994.415" gradientTransform="matrix(1 0 0 1 0 -922)">
						<stop  offset="0" style="stop-color:#0B1B49"/>
						<stop  offset="1" style="stop-color:#9810FA"/>
					</linearGradient>
					<path class="st22" d="M-409.2,84.1v6.3c0,1.1-0.6,1.6-1.6,1.6h-36.4c-1.1,0-1.6-0.6-1.6-1.6v-36c0-1.1,0.6-1.6,1.6-1.6h8.2
						c1.1,0,1.6,0.6,1.6,1.6v28.1h26.5C-409.8,82.5-409.2,83.1-409.2,84.1z"/>
					
						<linearGradient id="SVGID_23_" gradientUnits="userSpaceOnUse" x1="-76.662" y1="994.42" x2="-679.5359" y2="994.42" gradientTransform="matrix(1 0 0 1 0 -922)">
						<stop  offset="0" style="stop-color:#0B1B49"/>
						<stop  offset="1" style="stop-color:#9810FA"/>
					</linearGradient>
					<path class="st23" d="M-404.2,90.4v-36c0-1.1,0.6-1.6,1.6-1.6h24.6c14.5,0,21.5,6.4,21.5,19.7c0,13.3-7,19.5-22.1,19.5h-24
						C-403.6,92-404.2,91.5-404.2,90.4z M-368.3,72.9c0-6.9-4-10-11.8-10h-12.6v19h12.7C-371.7,81.9-368.3,79.3-368.3,72.9z"/>
					
						<linearGradient id="SVGID_24_" gradientUnits="userSpaceOnUse" x1="-76.662" y1="994.42" x2="-679.5359" y2="994.42" gradientTransform="matrix(1 0 0 1 0 -922)">
						<stop  offset="0" style="stop-color:#0B1B49"/>
						<stop  offset="1" style="stop-color:#9810FA"/>
					</linearGradient>
					<path class="st24" d="M-289.5,80.8c0,7.4-4.6,11.2-14.3,11.2h-31.6c-1.1,0-1.6-0.6-1.6-1.6v-36c0-1.1,0.6-1.6,1.6-1.6h28.7
						c9.3,0,14.3,3.5,14.3,10.1c0,5-2.8,7.8-6,8.5v0.2C-292.3,72.1-289.5,75-289.5,80.8z M-304.3,66.1c0-1.8-1.8-3.2-4.8-3.2h-16.4
						v6.2h16.5C-305.9,69.1-304.3,67.9-304.3,66.1z M-301.4,78.6c0-2.4-1.6-3.5-4.8-3.5h-19.3v6.9h19.3
						C-303.2,81.9-301.4,81-301.4,78.6z"/>
					
						<linearGradient id="SVGID_25_" gradientUnits="userSpaceOnUse" x1="-76.662" y1="994.415" x2="-679.5359" y2="994.415" gradientTransform="matrix(1 0 0 1 0 -922)">
						<stop  offset="0" style="stop-color:#0B1B49"/>
						<stop  offset="1" style="stop-color:#9810FA"/>
					</linearGradient>
					<path class="st25" d="M-245.1,84.1v6.3c0,1.1-0.6,1.6-1.6,1.6h-36.3c-1.1,0-1.6-0.6-1.6-1.6v-36c0-1.1,0.6-1.6,1.6-1.6h8.2
						c1.1,0,1.6,0.6,1.6,1.6v28.1h26.5C-245.7,82.5-245.1,83.1-245.1,84.1z"/>
					
						<linearGradient id="SVGID_26_" gradientUnits="userSpaceOnUse" x1="-76.662" y1="994.42" x2="-679.5359" y2="994.42" gradientTransform="matrix(1 0 0 1 0 -922)">
						<stop  offset="0" style="stop-color:#0B1B49"/>
						<stop  offset="1" style="stop-color:#9810FA"/>
					</linearGradient>
					<path class="st26" d="M-216.2,52.3c16.7,0,25.6,7.1,25.6,20c0,12.6-8.3,20.3-25.6,20.3c-17.3,0-25.6-7.7-25.6-20.3
						C-241.8,59.9-233.8,52.3-216.2,52.3z M-216.2,82.2c9.1,0,13.8-2.4,13.8-9.8s-4.7-9.8-13.7-9.8c-9.7,0-13.4,2.7-13.4,9.7
						C-229.4,79.9-225.3,82.2-216.2,82.2z"/>
					
						<linearGradient id="SVGID_27_" gradientUnits="userSpaceOnUse" x1="-76.662" y1="994.42" x2="-679.5359" y2="994.42" gradientTransform="matrix(1 0 0 1 0 -922)">
						<stop  offset="0" style="stop-color:#0B1B49"/>
						<stop  offset="1" style="stop-color:#9810FA"/>
					</linearGradient>
					<path class="st27" d="M-164.9,74v-2.7c0-1.1,0.6-1.6,1.6-1.6h22.7c1.1,0,1.6,0.6,1.6,1.6v19.1c0,1.1-0.6,1.6-1.6,1.6h-8.2
						c-1.1,0-1.6-0.6-1.6-1.6v-2.9h-0.8c-2.6,3.3-7.9,5-15,5c-14.7,0-20.9-7.7-20.9-19.4c0-13.8,8.6-20.9,26.3-20.9
						c13.7,0,21.1,4.3,21.6,12.6c0.1,0.9-0.3,1.3-1.3,1.3h-8.9c-1.3,0-1.3-0.6-1.6-1.3c-0.5-1.5-3.4-2.2-9.1-2.2
						c-11,0-14.7,2.7-14.7,9.7c0,7.5,4.1,9.9,12.6,9.9c7.8,0,11.9-2,11.9-5.2v-1.5h-12.8C-164.3,75.6-164.9,75.1-164.9,74z"/>
				</g>
			</g>
		</g>
	</g>
	<g>
		
			<linearGradient id="SVGID_28_" gradientUnits="userSpaceOnUse" x1="-321.5463" y1="910.2171" x2="-396.0981" y2="965.5718" gradientTransform="matrix(1 0 0 1 0 -922)">
			<stop  offset="0" style="stop-color:#0B1B49"/>
			<stop  offset="1" style="stop-color:#9810FA"/>
		</linearGradient>
		<path class="st28" d="M-362-28c31.3,8.2,44.9,42.2,33.6,67.5c-2.8-1-5.6-2-8.4-3c9.7-22.3-3.5-50.2-28.3-56
			C-364.1-22.3-363-25.1-362-28z"/>
		
			<linearGradient id="SVGID_29_" gradientUnits="userSpaceOnUse" x1="-322.6255" y1="908.7638" x2="-397.1772" y2="964.1183" gradientTransform="matrix(1 0 0 1 0 -922)">
			<stop  offset="0" style="stop-color:#0B1B49"/>
			<stop  offset="1" style="stop-color:#9810FA"/>
		</linearGradient>
		<path class="st29" d="M-342.5,34.8c-2.8-0.9-5.5-1.8-8.4-2.8c3.1-7.7,3.3-15.4-0.5-23.1c-3.8-7.7-10.2-12.1-18.5-14.4
			c1.1-2.8,2.2-5.5,3.3-8.3C-345.4-9.6-333.4,15.6-342.5,34.8z"/>
		
			<linearGradient id="SVGID_30_" gradientUnits="userSpaceOnUse" x1="-323.6761" y1="907.3489" x2="-398.2278" y2="962.7035" gradientTransform="matrix(1 0 0 1 0 -922)">
			<stop  offset="0" style="stop-color:#0B1B49"/>
			<stop  offset="1" style="stop-color:#9810FA"/>
		</linearGradient>
		<path class="st30" d="M-364.4,27.8c3.6-9-0.6-17.2-9.8-19.6c0.9-2.7,1.8-5.4,2.7-8.1c13.8,2,21.6,18,15.2,30.5
			C-359,29.6-361.7,28.7-364.4,27.8z"/>
		
			<linearGradient id="SVGID_31_" gradientUnits="userSpaceOnUse" x1="-325.1594" y1="905.351" x2="-399.7112" y2="960.7057" gradientTransform="matrix(1 0 0 1 0 -922)">
			<stop  offset="0" style="stop-color:#0B1B49"/>
			<stop  offset="1" style="stop-color:#9810FA"/>
		</linearGradient>
		<path class="st31" d="M-372.6,28.3c-3.9,2-8.9,0.4-10.9-3.4c-2-3.7-0.4-8.6,3.4-10.5c4-2,8.8-0.5,10.8,3.4
			C-367.3,21.7-368.7,26.3-372.6,28.3z"/>
	</g>
</g>
<g>
	<g>
		<g>
			<g>
				
					<linearGradient id="SVGID_32_" gradientUnits="userSpaceOnUse" x1="5.6688" y1="934.9985" x2="30.6805" y2="934.9985" gradientTransform="matrix(1 0 0 1 0 -922)">
					<stop  offset="0" style="stop-color:#0B1B49"/>
					<stop  offset="1" style="stop-color:#9810FA"/>
				</linearGradient>
				<circle class="st32" cx="7.9" cy="13" r="4.6"/>
			</g>
			<g>
				
					<linearGradient id="SVGID_33_" gradientUnits="userSpaceOnUse" x1="5.6688" y1="934.9985" x2="30.6805" y2="934.9985" gradientTransform="matrix(1 0 0 1 0 -922)">
					<stop  offset="0" style="stop-color:#0B1B49"/>
					<stop  offset="1" style="stop-color:#9810FA"/>
				</linearGradient>
				<circle class="st33" cx="25.2" cy="13" r="4.6"/>
			</g>
			<g>
				<path class="st7" d="M28.4,13.8c0,0.9-0.5,1.3-1.7,1.3H23c-0.1,0-0.2-0.1-0.2-0.2v-4.2c0-0.1,0.1-0.2,0.2-0.2h3.4
					c1.1,0,1.7,0.4,1.7,1.2c0,0.6-0.3,0.9-0.7,1v0C28.1,12.8,28.4,13.1,28.4,13.8z M26.7,12.1c0-0.2-0.2-0.4-0.6-0.4h-1.9v0.7h1.9
					C26.5,12.4,26.7,12.3,26.7,12.1z M27,13.6c0-0.3-0.2-0.4-0.6-0.4h-2.3V14h2.3C26.8,14,27,13.9,27,13.6z"/>
			</g>
			<g>
				
					<linearGradient id="SVGID_34_" gradientUnits="userSpaceOnUse" x1="5.6688" y1="934.9979" x2="30.6805" y2="934.9979" gradientTransform="matrix(1 0 0 1 0 -922)">
					<stop  offset="0" style="stop-color:#0B1B49"/>
					<stop  offset="1" style="stop-color:#9810FA"/>
				</linearGradient>
				<path class="st34" d="M16.6,8.4c-2.5,0-4.6,2.1-4.6,4.6s2.1,4.6,4.6,4.6s4.6-2.1,4.6-4.6S19.1,8.4,16.6,8.4z"/>
			</g>
			<g>
				<path class="st7" d="M16.6,9.4c-2,0-3.6,1.6-3.6,3.6s1.6,3.6,3.6,3.6c2,0,3.6-1.6,3.6-3.6S18.6,9.4,16.6,9.4z"/>
			</g>
			<g>
				
					<linearGradient id="SVGID_35_" gradientUnits="userSpaceOnUse" x1="16.6596" y1="931.308" x2="16.6596" y2="939.6613" gradientTransform="matrix(1 0 0 1 0 -922)">
					<stop  offset="0" style="stop-color:#0B1B49"/>
					<stop  offset="1" style="stop-color:#9810FA"/>
				</linearGradient>
				<path class="st35" d="M16.1,14.8h-1.7c-0.1,0-0.2-0.1-0.2-0.2l-0.9-2.9c0-0.1,0.1-0.2,0.2-0.2h0.9c0.1,0,0.2,0.1,0.2,0.2
					l0.7,2.3l0.7-2.3c0-0.1,0.1-0.2,0.2-0.2c0,0,0,0,0.1,0h0.9c0.1,0,0.2,0.1,0.2,0.2l0.7,2.3l0.7-2.3c0-0.1,0.1-0.2,0.2-0.2h0.9
					c0.1,0,0.2,0.1,0.2,0.2l-0.9,2.9c0,0.1-0.1,0.2-0.2,0.2h-1.7c-0.1,0-0.2-0.1-0.2-0.2l-0.4-1.2l-0.4,1.2
					C16.2,14.7,16.2,14.8,16.1,14.8z"/>
			</g>
			<g>
				<path class="st7" d="M5.5,15v-4.2c0-0.1,0.1-0.2,0.2-0.2h2.9c1.7,0,2.5,0.8,2.5,2.3c0,1.6-0.8,2.3-2.6,2.3H5.7
					C5.6,15.1,5.5,15.1,5.5,15z M9.7,12.9c0-0.8-0.5-1.2-1.4-1.2H6.8V14h1.5C9.3,14,9.7,13.6,9.7,12.9z"/>
			</g>
		</g>
	</g>
</g>
<g>
	<g>
		
			<linearGradient id="SVGID_36_" gradientUnits="userSpaceOnUse" x1="10.9948" y1="938.8871" x2="10.9948" y2="945.2307" gradientTransform="matrix(1 0 0 1 0 -922)">
			<stop  offset="0" style="stop-color:#0B1B49"/>
			<stop  offset="1" style="stop-color:#9810FA"/>
		</linearGradient>
		<path class="st36" d="M9.5,21.2V19c0-0.1,0-0.1,0.1-0.1h1.6c0.9,0,1.4,0.4,1.4,1.3c0,0.8-0.4,1.2-1.4,1.2H9.6
			C9.5,21.3,9.5,21.3,9.5,21.2z M11.8,20.1c0-0.4-0.3-0.6-0.8-0.6h-0.8v1.2H11C11.5,20.7,11.8,20.5,11.8,20.1z"/>
		
			<linearGradient id="SVGID_37_" gradientUnits="userSpaceOnUse" x1="14.0692" y1="938.8871" x2="14.0692" y2="945.2307" gradientTransform="matrix(1 0 0 1 0 -922)">
			<stop  offset="0" style="stop-color:#0B1B49"/>
			<stop  offset="1" style="stop-color:#9810FA"/>
		</linearGradient>
		<path class="st37" d="M13.2,21.3h-0.6c-0.1,0-0.1,0-0.1-0.1l0.9-2.3c0-0.1,0.1-0.1,0.1-0.1h1c0.1,0,0.1,0,0.1,0.1l0.9,2.3
			c0,0.1,0,0.1-0.1,0.1h-0.6c-0.1,0-0.1,0-0.1-0.1l-0.1-0.4h-1.2l-0.1,0.4C13.3,21.3,13.3,21.3,13.2,21.3z M14.4,20.3l-0.4-0.9
			l-0.4,0.9H14.4z"/>
		
			<linearGradient id="SVGID_38_" gradientUnits="userSpaceOnUse" x1="16.2096" y1="938.8871" x2="16.2096" y2="945.2307" gradientTransform="matrix(1 0 0 1 0 -922)">
			<stop  offset="0" style="stop-color:#0B1B49"/>
			<stop  offset="1" style="stop-color:#9810FA"/>
		</linearGradient>
		<path class="st38" d="M16.5,21.3h-0.5c-0.1,0-0.1,0-0.1-0.1V19c0-0.1,0-0.1,0.1-0.1h0.5c0.1,0,0.1,0,0.1,0.1v2.3
			C16.6,21.3,16.5,21.3,16.5,21.3z"/>
		
			<linearGradient id="SVGID_39_" gradientUnits="userSpaceOnUse" x1="18.2585" y1="938.8871" x2="18.2585" y2="945.2307" gradientTransform="matrix(1 0 0 1 0 -922)">
			<stop  offset="0" style="stop-color:#0B1B49"/>
			<stop  offset="1" style="stop-color:#9810FA"/>
		</linearGradient>
		<path class="st39" d="M19.5,20.8v0.4c0,0.1,0,0.1-0.1,0.1h-2.3c-0.1,0-0.1,0-0.1-0.1V19c0-0.1,0-0.1,0.1-0.1h0.5
			c0.1,0,0.1,0,0.1,0.1v1.8h1.7C19.5,20.7,19.5,20.8,19.5,20.8z"/>
		
			<linearGradient id="SVGID_40_" gradientUnits="userSpaceOnUse" x1="20.5515" y1="938.8871" x2="20.5515" y2="945.2307" gradientTransform="matrix(1 0 0 1 0 -922)">
			<stop  offset="0" style="stop-color:#0B1B49"/>
			<stop  offset="1" style="stop-color:#9810FA"/>
		</linearGradient>
		<path class="st40" d="M19.2,18.9h0.7c0.1,0,0.1,0,0.2,0.1l0.5,0.8l0.5-0.8c0-0.1,0.1-0.1,0.2-0.1h0.7c0.1,0,0.1,0,0.1,0.1l-1,1.5
			v0.8c0,0.1,0,0.1-0.1,0.1h-0.5c-0.1,0-0.1,0-0.1-0.1v-0.8l-1-1.5C19.1,18.9,19.1,18.9,19.2,18.9z"/>
	</g>
	<g>
		<g>
			
				<linearGradient id="SVGID_41_" gradientUnits="userSpaceOnUse" x1="32.0899" y1="945.1309" x2="2.0395" y2="945.1309" gradientTransform="matrix(1 0 0 1 0 -922)">
				<stop  offset="0" style="stop-color:#0B1B49"/>
				<stop  offset="1" style="stop-color:#9810FA"/>
			</linearGradient>
			<path class="st41" d="M6.1,22.2h0.4c0.1,0,0.1,0,0.1,0.1l0.5,1.5l0.5-1.5c0,0,0-0.1,0.1-0.1h0.5c0.1,0,0.1,0,0.1,0.1L7.6,24
				c0,0,0,0.1-0.1,0.1H6.7c-0.1,0-0.1,0-0.1-0.1l-0.3-1l-0.3,1c0,0,0,0.1-0.1,0.1H5.2c-0.1,0-0.1,0-0.1-0.1l-0.6-1.8
				c0,0,0-0.1,0.1-0.1H5c0.1,0,0.1,0,0.1,0.1l0.5,1.5L6.1,22.2C6.1,22.2,6.1,22.2,6.1,22.2z"/>
			
				<linearGradient id="SVGID_42_" gradientUnits="userSpaceOnUse" x1="32.0899" y1="945.1311" x2="2.0395" y2="945.1311" gradientTransform="matrix(1 0 0 1 0 -922)">
				<stop  offset="0" style="stop-color:#0B1B49"/>
				<stop  offset="1" style="stop-color:#9810FA"/>
			</linearGradient>
			<path class="st42" d="M9.5,22.1c0.8,0,1.3,0.4,1.3,1c0,0.6-0.4,1-1.3,1c-0.9,0-1.3-0.4-1.3-1C8.2,22.5,8.6,22.1,9.5,22.1z
				 M9.5,23.6c0.5,0,0.7-0.1,0.7-0.5s-0.2-0.5-0.7-0.5c-0.5,0-0.7,0.1-0.7,0.5C8.8,23.5,9,23.6,9.5,23.6z"/>
			
				<linearGradient id="SVGID_43_" gradientUnits="userSpaceOnUse" x1="32.0899" y1="945.1311" x2="2.0395" y2="945.1311" gradientTransform="matrix(1 0 0 1 0 -922)">
				<stop  offset="0" style="stop-color:#0B1B49"/>
				<stop  offset="1" style="stop-color:#9810FA"/>
			</linearGradient>
			<path class="st43" d="M11.5,24.1h-0.4c-0.1,0-0.1,0-0.1-0.1v-1.8c0-0.1,0-0.1,0.1-0.1h1.4c0.5,0,0.7,0.2,0.7,0.7
				c0,0.3-0.1,0.5-0.4,0.6l0.5,0.6c0,0,0,0.1,0,0.1h-0.5c-0.1,0-0.1,0-0.1-0.1l-0.5-0.6h-0.6L11.5,24.1
				C11.6,24.1,11.5,24.1,11.5,24.1z M12.6,22.8c0-0.1-0.1-0.2-0.2-0.2h-0.8V23h0.8C12.6,23,12.6,22.9,12.6,22.8z"/>
			
				<linearGradient id="SVGID_44_" gradientUnits="userSpaceOnUse" x1="32.0899" y1="945.1309" x2="2.0395" y2="945.1309" gradientTransform="matrix(1 0 0 1 0 -922)">
				<stop  offset="0" style="stop-color:#0B1B49"/>
				<stop  offset="1" style="stop-color:#9810FA"/>
			</linearGradient>
			<path class="st44" d="M15.5,23.7V24c0,0.1,0,0.1-0.1,0.1h-1.8c-0.1,0-0.1,0-0.1-0.1v-1.8c0-0.1,0-0.1,0.1-0.1H14
				c0.1,0,0.1,0,0.1,0.1v1.4L15.5,23.7C15.5,23.6,15.5,23.7,15.5,23.7z"/>
			
				<linearGradient id="SVGID_45_" gradientUnits="userSpaceOnUse" x1="32.0899" y1="945.1311" x2="2.0395" y2="945.1311" gradientTransform="matrix(1 0 0 1 0 -922)">
				<stop  offset="0" style="stop-color:#0B1B49"/>
				<stop  offset="1" style="stop-color:#9810FA"/>
			</linearGradient>
			<path class="st45" d="M15.8,24v-1.8c0-0.1,0-0.1,0.1-0.1h1.2c0.7,0,1.1,0.3,1.1,1c0,0.7-0.3,1-1.1,1L15.8,24
				C15.8,24.1,15.8,24.1,15.8,24z M17.6,23.2c0-0.3-0.2-0.5-0.6-0.5h-0.6v0.9H17C17.4,23.6,17.6,23.5,17.6,23.2z"/>
			
				<linearGradient id="SVGID_46_" gradientUnits="userSpaceOnUse" x1="32.0899" y1="945.1311" x2="2.0395" y2="945.1311" gradientTransform="matrix(1 0 0 1 0 -922)">
				<stop  offset="0" style="stop-color:#0B1B49"/>
				<stop  offset="1" style="stop-color:#9810FA"/>
			</linearGradient>
			<path class="st46" d="M21.5,23.5c0,0.4-0.2,0.6-0.7,0.6h-1.6c-0.1,0-0.1,0-0.1-0.1v-1.8c0-0.1,0-0.1,0.1-0.1h1.4
				c0.5,0,0.7,0.2,0.7,0.5c0,0.2-0.1,0.4-0.3,0.4v0C21.3,23.1,21.5,23.3,21.5,23.5z M20.7,22.8c0-0.1-0.1-0.2-0.2-0.2h-0.8V23h0.8
				C20.7,23,20.7,22.9,20.7,22.8z M20.9,23.4c0-0.1-0.1-0.2-0.2-0.2h-1v0.3h1C20.8,23.6,20.9,23.6,20.9,23.4z"/>
			
				<linearGradient id="SVGID_47_" gradientUnits="userSpaceOnUse" x1="32.0899" y1="945.1309" x2="2.0395" y2="945.1309" gradientTransform="matrix(1 0 0 1 0 -922)">
				<stop  offset="0" style="stop-color:#0B1B49"/>
				<stop  offset="1" style="stop-color:#9810FA"/>
			</linearGradient>
			<path class="st47" d="M23.7,23.7V24c0,0.1,0,0.1-0.1,0.1h-1.8c-0.1,0-0.1,0-0.1-0.1v-1.8c0-0.1,0-0.1,0.1-0.1h0.4
				c0.1,0,0.1,0,0.1,0.1v1.4L23.7,23.7C23.7,23.6,23.7,23.7,23.7,23.7z"/>
			
				<linearGradient id="SVGID_48_" gradientUnits="userSpaceOnUse" x1="32.0899" y1="945.1311" x2="2.0395" y2="945.1311" gradientTransform="matrix(1 0 0 1 0 -922)">
				<stop  offset="0" style="stop-color:#0B1B49"/>
				<stop  offset="1" style="stop-color:#9810FA"/>
			</linearGradient>
			<path class="st48" d="M25.1,22.1c0.8,0,1.3,0.4,1.3,1c0,0.6-0.4,1-1.3,1c-0.9,0-1.3-0.4-1.3-1C23.9,22.5,24.3,22.1,25.1,22.1z
				 M25.1,23.6c0.5,0,0.7-0.1,0.7-0.5s-0.2-0.5-0.7-0.5c-0.5,0-0.7,0.1-0.7,0.5C24.5,23.5,24.7,23.6,25.1,23.6z"/>
			
				<linearGradient id="SVGID_49_" gradientUnits="userSpaceOnUse" x1="32.0899" y1="945.1311" x2="2.0395" y2="945.1311" gradientTransform="matrix(1 0 0 1 0 -922)">
				<stop  offset="0" style="stop-color:#0B1B49"/>
				<stop  offset="1" style="stop-color:#9810FA"/>
			</linearGradient>
			<path class="st49" d="M27.7,23.2v-0.1c0-0.1,0-0.1,0.1-0.1h1.1c0.1,0,0.1,0,0.1,0.1v1c0,0.1,0,0.1-0.1,0.1h-0.4
				c-0.1,0-0.1,0-0.1-0.1v-0.1h0c-0.1,0.2-0.4,0.3-0.7,0.3c-0.7,0-1-0.4-1-1c0-0.7,0.4-1,1.3-1c0.7,0,1.1,0.2,1.1,0.6
				c0,0,0,0.1-0.1,0.1h-0.4c-0.1,0-0.1,0-0.1-0.1c0-0.1-0.2-0.1-0.5-0.1c-0.5,0-0.7,0.1-0.7,0.5c0,0.4,0.2,0.5,0.6,0.5
				c0.4,0,0.6-0.1,0.6-0.3v-0.1L27.7,23.2C27.7,23.3,27.7,23.3,27.7,23.2z"/>
		</g>
		<g>
			<g>
				
					<linearGradient id="SVGID_50_" gradientUnits="userSpaceOnUse" x1="32.0899" y1="945.1309" x2="2.0395" y2="945.1309" gradientTransform="matrix(1 0 0 1 0 -922)">
					<stop  offset="0" style="stop-color:#0B1B49"/>
					<stop  offset="1" style="stop-color:#9810FA"/>
				</linearGradient>
				<path class="st50" d="M6.1,22.2h0.4c0.1,0,0.1,0,0.1,0.1l0.5,1.5l0.5-1.5c0,0,0-0.1,0.1-0.1h0.5c0.1,0,0.1,0,0.1,0.1L7.6,24
					c0,0,0,0.1-0.1,0.1H6.7c-0.1,0-0.1,0-0.1-0.1l-0.3-1l-0.3,1c0,0,0,0.1-0.1,0.1H5.2c-0.1,0-0.1,0-0.1-0.1l-0.6-1.8
					c0,0,0-0.1,0.1-0.1H5c0.1,0,0.1,0,0.1,0.1l0.5,1.5L6.1,22.2C6.1,22.2,6.1,22.2,6.1,22.2z"/>
				
					<linearGradient id="SVGID_51_" gradientUnits="userSpaceOnUse" x1="32.0899" y1="945.1311" x2="2.0395" y2="945.1311" gradientTransform="matrix(1 0 0 1 0 -922)">
					<stop  offset="0" style="stop-color:#0B1B49"/>
					<stop  offset="1" style="stop-color:#9810FA"/>
				</linearGradient>
				<path class="st51" d="M9.5,22.1c0.8,0,1.3,0.4,1.3,1c0,0.6-0.4,1-1.3,1c-0.9,0-1.3-0.4-1.3-1C8.2,22.5,8.6,22.1,9.5,22.1z
					 M9.5,23.6c0.5,0,0.7-0.1,0.7-0.5s-0.2-0.5-0.7-0.5c-0.5,0-0.7,0.1-0.7,0.5C8.8,23.5,9,23.6,9.5,23.6z"/>
				
					<linearGradient id="SVGID_52_" gradientUnits="userSpaceOnUse" x1="32.0899" y1="945.1311" x2="2.0395" y2="945.1311" gradientTransform="matrix(1 0 0 1 0 -922)">
					<stop  offset="0" style="stop-color:#0B1B49"/>
					<stop  offset="1" style="stop-color:#9810FA"/>
				</linearGradient>
				<path class="st52" d="M11.5,24.1h-0.4c-0.1,0-0.1,0-0.1-0.1v-1.8c0-0.1,0-0.1,0.1-0.1h1.4c0.5,0,0.7,0.2,0.7,0.7
					c0,0.3-0.1,0.5-0.4,0.6l0.5,0.6c0,0,0,0.1,0,0.1h-0.5c-0.1,0-0.1,0-0.1-0.1l-0.5-0.6h-0.6L11.5,24.1
					C11.6,24.1,11.5,24.1,11.5,24.1z M12.6,22.8c0-0.1-0.1-0.2-0.2-0.2h-0.8V23h0.8C12.6,23,12.6,22.9,12.6,22.8z"/>
				
					<linearGradient id="SVGID_53_" gradientUnits="userSpaceOnUse" x1="32.0899" y1="945.1309" x2="2.0395" y2="945.1309" gradientTransform="matrix(1 0 0 1 0 -922)">
					<stop  offset="0" style="stop-color:#0B1B49"/>
					<stop  offset="1" style="stop-color:#9810FA"/>
				</linearGradient>
				<path class="st53" d="M15.5,23.7V24c0,0.1,0,0.1-0.1,0.1h-1.8c-0.1,0-0.1,0-0.1-0.1v-1.8c0-0.1,0-0.1,0.1-0.1H14
					c0.1,0,0.1,0,0.1,0.1v1.4L15.5,23.7C15.5,23.6,15.5,23.7,15.5,23.7z"/>
				
					<linearGradient id="SVGID_54_" gradientUnits="userSpaceOnUse" x1="32.0899" y1="945.1311" x2="2.0395" y2="945.1311" gradientTransform="matrix(1 0 0 1 0 -922)">
					<stop  offset="0" style="stop-color:#0B1B49"/>
					<stop  offset="1" style="stop-color:#9810FA"/>
				</linearGradient>
				<path class="st54" d="M15.8,24v-1.8c0-0.1,0-0.1,0.1-0.1h1.2c0.7,0,1.1,0.3,1.1,1c0,0.7-0.3,1-1.1,1L15.8,24
					C15.8,24.1,15.8,24.1,15.8,24z M17.6,23.2c0-0.3-0.2-0.5-0.6-0.5h-0.6v0.9H17C17.4,23.6,17.6,23.5,17.6,23.2z"/>
				
					<linearGradient id="SVGID_55_" gradientUnits="userSpaceOnUse" x1="32.0899" y1="945.1311" x2="2.0395" y2="945.1311" gradientTransform="matrix(1 0 0 1 0 -922)">
					<stop  offset="0" style="stop-color:#0B1B49"/>
					<stop  offset="1" style="stop-color:#9810FA"/>
				</linearGradient>
				<path class="st55" d="M21.5,23.5c0,0.4-0.2,0.6-0.7,0.6h-1.6c-0.1,0-0.1,0-0.1-0.1v-1.8c0-0.1,0-0.1,0.1-0.1h1.4
					c0.5,0,0.7,0.2,0.7,0.5c0,0.2-0.1,0.4-0.3,0.4v0C21.3,23.1,21.5,23.3,21.5,23.5z M20.7,22.8c0-0.1-0.1-0.2-0.2-0.2h-0.8V23h0.8
					C20.7,23,20.7,22.9,20.7,22.8z M20.9,23.4c0-0.1-0.1-0.2-0.2-0.2h-1v0.3h1C20.8,23.6,20.9,23.6,20.9,23.4z"/>
				
					<linearGradient id="SVGID_56_" gradientUnits="userSpaceOnUse" x1="32.0899" y1="945.1309" x2="2.0395" y2="945.1309" gradientTransform="matrix(1 0 0 1 0 -922)">
					<stop  offset="0" style="stop-color:#0B1B49"/>
					<stop  offset="1" style="stop-color:#9810FA"/>
				</linearGradient>
				<path class="st56" d="M23.7,23.7V24c0,0.1,0,0.1-0.1,0.1h-1.8c-0.1,0-0.1,0-0.1-0.1v-1.8c0-0.1,0-0.1,0.1-0.1h0.4
					c0.1,0,0.1,0,0.1,0.1v1.4L23.7,23.7C23.7,23.6,23.7,23.7,23.7,23.7z"/>
				
					<linearGradient id="SVGID_57_" gradientUnits="userSpaceOnUse" x1="32.0899" y1="945.1311" x2="2.0395" y2="945.1311" gradientTransform="matrix(1 0 0 1 0 -922)">
					<stop  offset="0" style="stop-color:#0B1B49"/>
					<stop  offset="1" style="stop-color:#9810FA"/>
				</linearGradient>
				<path class="st57" d="M25.1,22.1c0.8,0,1.3,0.4,1.3,1c0,0.6-0.4,1-1.3,1c-0.9,0-1.3-0.4-1.3-1C23.9,22.5,24.3,22.1,25.1,22.1z
					 M25.1,23.6c0.5,0,0.7-0.1,0.7-0.5s-0.2-0.5-0.7-0.5c-0.5,0-0.7,0.1-0.7,0.5C24.5,23.5,24.7,23.6,25.1,23.6z"/>
				
					<linearGradient id="SVGID_58_" gradientUnits="userSpaceOnUse" x1="32.0899" y1="945.1311" x2="2.0395" y2="945.1311" gradientTransform="matrix(1 0 0 1 0 -922)">
					<stop  offset="0" style="stop-color:#0B1B49"/>
					<stop  offset="1" style="stop-color:#9810FA"/>
				</linearGradient>
				<path class="st58" d="M27.7,23.2v-0.1c0-0.1,0-0.1,0.1-0.1h1.1c0.1,0,0.1,0,0.1,0.1v1c0,0.1,0,0.1-0.1,0.1h-0.4
					c-0.1,0-0.1,0-0.1-0.1v-0.1h0c-0.1,0.2-0.4,0.3-0.7,0.3c-0.7,0-1-0.4-1-1c0-0.7,0.4-1,1.3-1c0.7,0,1.1,0.2,1.1,0.6
					c0,0,0,0.1-0.1,0.1h-0.4c-0.1,0-0.1,0-0.1-0.1c0-0.1-0.2-0.1-0.5-0.1c-0.5,0-0.7,0.1-0.7,0.5c0,0.4,0.2,0.5,0.6,0.5
					c0.4,0,0.6-0.1,0.6-0.3v-0.1L27.7,23.2C27.7,23.3,27.7,23.3,27.7,23.2z"/>
			</g>
		</g>
	</g>
	<g>
		
			<linearGradient id="SVGID_59_" gradientUnits="userSpaceOnUse" x1="25.0182" y1="940.934" x2="21.3021" y2="943.6932" gradientTransform="matrix(1 0 0 1 0 -922)">
			<stop  offset="0" style="stop-color:#0B1B49"/>
			<stop  offset="1" style="stop-color:#9810FA"/>
		</linearGradient>
		<path class="st59" d="M23,18.1c1.6,0.4,2.2,2.1,1.7,3.4c-0.1,0-0.3-0.1-0.4-0.1c0.5-1.1-0.2-2.5-1.4-2.8
			C22.9,18.4,22.9,18.3,23,18.1z"/>
		
			<linearGradient id="SVGID_60_" gradientUnits="userSpaceOnUse" x1="24.9644" y1="940.8616" x2="21.2483" y2="943.6207" gradientTransform="matrix(1 0 0 1 0 -922)">
			<stop  offset="0" style="stop-color:#0B1B49"/>
			<stop  offset="1" style="stop-color:#9810FA"/>
		</linearGradient>
		<path class="st60" d="M24,21.3c-0.1,0-0.3-0.1-0.4-0.1c0.2-0.4,0.2-0.8,0-1.2c-0.2-0.4-0.5-0.6-0.9-0.7c0.1-0.1,0.1-0.3,0.2-0.4
			C23.8,19,24.4,20.3,24,21.3z"/>
		
			<linearGradient id="SVGID_61_" gradientUnits="userSpaceOnUse" x1="24.912" y1="940.791" x2="21.1959" y2="943.5502" gradientTransform="matrix(1 0 0 1 0 -922)">
			<stop  offset="0" style="stop-color:#0B1B49"/>
			<stop  offset="1" style="stop-color:#9810FA"/>
		</linearGradient>
		<path class="st61" d="M22.9,20.9c0.2-0.4,0-0.9-0.5-1c0-0.1,0.1-0.3,0.1-0.4c0.7,0.1,1.1,0.9,0.8,1.5C23.2,21,23,21,22.9,20.9z"/>
		
			<linearGradient id="SVGID_62_" gradientUnits="userSpaceOnUse" x1="24.8381" y1="940.6915" x2="21.122" y2="943.4506" gradientTransform="matrix(1 0 0 1 0 -922)">
			<stop  offset="0" style="stop-color:#0B1B49"/>
			<stop  offset="1" style="stop-color:#9810FA"/>
		</linearGradient>
		<path class="st62" d="M22.5,20.9c-0.2,0.1-0.4,0-0.5-0.2c-0.1-0.2,0-0.4,0.2-0.5c0.2-0.1,0.4,0,0.5,0.2
			C22.7,20.6,22.7,20.8,22.5,20.9z"/>
	</g>
</g>
</svg>
